<svg xmlns="http://www.w3.org/2000/svg" xmlns:xlink="http://www.w3.org/1999/xlink" width="56" height="56" viewBox="0 0 56 56">
  <defs>
    <clipPath id="clip-path">
      <rect id="Add_a_subheading_11_" data-name="Add a subheading (11)" width="56" height="56" fill="none" style="isolation: isolate"/>
    </clipPath>
  </defs>
  <g id="Add_a_subheading_11_2" data-name="Add a subheading (11)" clip-path="url(#clip-path)" style="isolation: isolate">
    <rect id="Add_a_subheading_11_3" data-name="Add a subheading (11)" width="56" height="56" fill="none" style="isolation: isolate"/>
    <g id="Group" transform="translate(6.098 20.626)" style="isolation: isolate">
      <g id="Group-2" data-name="Group" style="isolation: isolate">
        <g id="Group-3" data-name="Group" style="isolation: isolate">
          <path id="Vector" d="M13.834,10.848V14.27H0V12.8L6.617,3.422H.5V0h13.17V1.473L7.052,10.848Z" fill="#fff" style="isolation: isolate"/>
        </g>
      </g>
    </g>
    <g id="Group-4" data-name="Group" transform="translate(22.11 20.626)" style="isolation: isolate">
      <g id="Group-5" data-name="Group" style="isolation: isolate">
        <g id="Group-6" data-name="Group" style="isolation: isolate">
          <path id="Vector-2" data-name="Vector" d="M15.348,0,10.224,5.87l5.227,8.4H10.039L7.072,9.044,4.583,11.076V14.27H0V0H4.583V6.1L9.665,0Z" fill="#fff" style="isolation: isolate"/>
        </g>
      </g>
    </g>
    <g id="Group-7" data-name="Group" transform="translate(39.387 20.626)" style="isolation: isolate">
      <g id="Group-8" data-name="Group" style="isolation: isolate">
        <g id="Group-9" data-name="Group" style="isolation: isolate">
          <path id="Vector-3" data-name="Vector" d="M10.37.613a4.29,4.29,0,0,1,1.617,1.68,4.934,4.934,0,0,1,.581,2.4v.269a5,5,0,0,1-.581,2.407A4.277,4.277,0,0,1,10.37,9.055a4.566,4.566,0,0,1-2.365.611H4.583v4.6H0V0H8.006A4.562,4.562,0,0,1,10.37.613Zm-3.9,5.713A1.455,1.455,0,0,0,7.56,5.953a1.4,1.4,0,0,0,.363-1.017V4.77A1.388,1.388,0,0,0,7.56,3.744a1.479,1.479,0,0,0-1.089-.363H4.583V6.326Z" fill="#fff" style="isolation: isolate"/>
        </g>
      </g>
    </g>
    <g id="Group-10" data-name="Group" transform="translate(23.479 36.653)" style="isolation: isolate">
      <g id="Group-11" data-name="Group" style="isolation: isolate">
        <g id="Group-12" data-name="Group" style="isolation: isolate">
          <path id="Vector-4" data-name="Vector" d="M0,0H.937a.628.628,0,0,1,.28.063A.718.718,0,0,1,1.439.23a.813.813,0,0,1,.148.237A.712.712,0,0,1,1.64.735a.76.76,0,0,1-.087.355.739.739,0,0,1-.24.273.615.615,0,0,1-.361.106H.43v.74H0ZM.927,1.092a.241.241,0,0,0,.14-.043.3.3,0,0,0,.1-.126A.445.445,0,0,0,1.2.735a.416.416,0,0,0-.042-.2A.3.3,0,0,0,1.053.418.273.273,0,0,0,.908.377H.43v.715Z" fill="#fff" style="isolation: isolate"/>
        </g>
      </g>
    </g>
    <g id="Group-13" data-name="Group" transform="translate(25.275 37.204)" style="isolation: isolate">
      <g id="Group-14" data-name="Group" style="isolation: isolate">
        <g id="Group-15" data-name="Group" style="isolation: isolate">
          <path id="Vector-5" data-name="Vector" d="M.5,1.623a.784.784,0,0,1-.269-.185.845.845,0,0,1-.17-.271A.889.889,0,0,1,0,.846.9.9,0,0,1,.058.523a.834.834,0,0,1,.17-.27A.783.783,0,0,1,.5.067.916.916,0,0,1,.856,0a.9.9,0,0,1,.355.067A.788.788,0,0,1,1.48.253a.8.8,0,0,1,.17.27.9.9,0,0,1,.058.323.889.889,0,0,1-.058.321.821.821,0,0,1-.167.271.773.773,0,0,1-.269.185.914.914,0,0,1-.358.067A.916.916,0,0,1,.5,1.623ZM.485,1.1a.436.436,0,0,0,.152.173.4.4,0,0,0,.218.062.378.378,0,0,0,.214-.064A.454.454,0,0,0,1.224,1.1.544.544,0,0,0,1.281.843.548.548,0,0,0,1.224.591.435.435,0,0,0,1.069.417.386.386,0,0,0,.856.354.386.386,0,0,0,.637.418.446.446,0,0,0,.485.593.548.548,0,0,0,.429.846.55.55,0,0,0,.485,1.1Z" fill="#fff" style="isolation: isolate"/>
        </g>
      </g>
    </g>
    <g id="Group-16" data-name="Group" transform="translate(27.079 37.232)" style="isolation: isolate">
      <g id="Group-17" data-name="Group" style="isolation: isolate">
        <g id="Group-18" data-name="Group" style="isolation: isolate">
          <path id="Vector-6" data-name="Vector" d="M2.6,0,1.92,1.63H1.571L1.3.93l-.268.7H.678L0,0H.392L.877,1.231,1.067.7.784,0h.345L1.3.5,1.468,0h.346L1.531.7l.192.531L2.206,0Z" fill="#fff" style="isolation: isolate"/>
        </g>
      </g>
    </g>
    <g id="Group-19" data-name="Group" transform="translate(29.771 37.204)" style="isolation: isolate">
      <g id="Group-20" data-name="Group" style="isolation: isolate">
        <g id="Group-21" data-name="Group" style="isolation: isolate">
          <path id="Vector-7" data-name="Vector" d="M.5,1.623a.8.8,0,0,1-.271-.184A.831.831,0,0,1,.06,1.172.849.849,0,0,1,0,.852.882.882,0,0,1,.1.427.8.8,0,0,1,.4.117.873.873,0,0,1,.861,0a.854.854,0,0,1,.457.117A.794.794,0,0,1,1.61.425a.869.869,0,0,1,.1.413c0,.025,0,.05,0,.076S1.7.96,1.7.977H.442a.478.478,0,0,0,.072.218.4.4,0,0,0,.156.142.441.441,0,0,0,.2.049.478.478,0,0,0,.234-.06.323.323,0,0,0,.151-.161l.358.1a.674.674,0,0,1-.17.221.821.821,0,0,1-.259.151.964.964,0,0,1-.329.054A.907.907,0,0,1,.5,1.623ZM1.284.712A.486.486,0,0,0,1.214.5.4.4,0,0,0,1.063.353.419.419,0,0,0,.856.3a.407.407,0,0,0-.2.052A.415.415,0,0,0,.5.5.488.488,0,0,0,.432.712Z" fill="#fff" style="isolation: isolate"/>
        </g>
      </g>
    </g>
    <g id="Group-22" data-name="Group" transform="translate(31.737 37.21)" style="isolation: isolate">
      <g id="Group-23" data-name="Group" style="isolation: isolate">
        <g id="Group-24" data-name="Group" style="isolation: isolate">
          <path id="Vector-8" data-name="Vector" d="M.631.456a.44.44,0,0,0-.214.21v.986H0V.022H.382V.369A.744.744,0,0,1,.6.106.529.529,0,0,1,.886,0H.939A.124.124,0,0,1,.97,0V.382A.762.762,0,0,0,.631.456Z" fill="#fff" style="isolation: isolate"/>
        </g>
      </g>
    </g>
  </g>
</svg>
