<svg xmlns="http://www.w3.org/2000/svg" width="33.147" height="56" viewBox="0 0 33.147 56">
  <g id="Group_2134" data-name="Group 2134" style="isolation: isolate">
    <g id="Group" style="isolation: isolate">
      <path id="Vector" d="M7.161,20.115A12.946,12.946,0,0,1,20.115,7.161V0A20.122,20.122,0,0,0,0,20.115a21.179,21.179,0,0,0,2.092,9.011S3.54,33.31,9.575,41.035c5.954,7.644,10.3,14.8,10.46,14.965V41.919c-2.575-4.667-8.851-9.333-11.586-16.253A13.071,13.071,0,0,1,7.161,20.115Z" fill="#00ffcf" style="isolation: isolate"/>
    </g>
    <path id="Vector-2" data-name="Vector" d="M0,7.79a7.714,7.714,0,0,0,7.631,7.79V0A7.714,7.714,0,0,0,0,7.79Z" transform="translate(12.399 12.401)" fill="#ff00e5" style="isolation: isolate"/>
    <path id="Vector-3" data-name="Vector" d="M0,34.811c.08-.08,2.979-4.558,6.841-9.225a44.86,44.86,0,0,0,3.621-4.908,12.9,12.9,0,0,0,2.494-6.437,9.745,9.745,0,0,0,.08-1.529,11.582,11.582,0,0,0-1.609-5.954A12.91,12.91,0,0,0,0,0V5.31a7.726,7.726,0,0,1,7.724,7.724A7.726,7.726,0,0,1,0,20.759v5.23L0,26.2Z" transform="translate(20.11 7.161)" fill="#f6ee24" style="isolation: isolate"/>
  </g>
</svg>
