<svg xmlns="http://www.w3.org/2000/svg" xmlns:xlink="http://www.w3.org/1999/xlink" width="61" height="59" viewBox="0 0 61 59">
  <defs>
    <clipPath id="clip-path">
      <rect id="material-symbols:candlestick-chart-rounded" width="61" height="59" fill="none" style="isolation: isolate"/>
    </clipPath>
  </defs>
  <g id="material-symbols:candlestick-chart-rounded-2" data-name="material-symbols:candlestick-chart-rounded" clip-path="url(#clip-path)" style="isolation: isolate">
    <rect id="material-symbols:candlestick-chart-rounded-3" data-name="material-symbols:candlestick-chart-rounded" width="61" height="59" fill="none" style="isolation: isolate"/>
    <path id="Vector" d="M5.429,38.5H2.714a2.6,2.6,0,0,1-1.933-.792A2.692,2.692,0,0,1,0,35.75V8.25A2.672,2.672,0,0,1,.782,6.292,2.622,2.622,0,0,1,2.714,5.5H5.429V2.75A2.672,2.672,0,0,1,6.21.792,2.622,2.622,0,0,1,8.143,0a2.6,2.6,0,0,1,1.935.792,2.66,2.66,0,0,1,.779,1.958V5.5h2.714a2.611,2.611,0,0,1,1.935.792,2.668,2.668,0,0,1,.779,1.958v27.5a2.681,2.681,0,0,1-.782,1.961,2.6,2.6,0,0,1-1.933.789H10.857v2.75a2.681,2.681,0,0,1-.782,1.961A2.6,2.6,0,0,1,8.143,44a2.621,2.621,0,0,1-1.933-.792,2.672,2.672,0,0,1-.782-1.958Zm21.714-8.25H24.429a2.6,2.6,0,0,1-1.933-.792,2.692,2.692,0,0,1-.782-1.958V13.75a2.672,2.672,0,0,1,.782-1.958A2.621,2.621,0,0,1,24.429,11h2.714V2.75A2.672,2.672,0,0,1,27.925.792a2.757,2.757,0,0,1,3.868,0,2.66,2.66,0,0,1,.779,1.958V11h2.714a2.611,2.611,0,0,1,1.935.792A2.669,2.669,0,0,1,38,13.75V27.5a2.681,2.681,0,0,1-.782,1.961,2.6,2.6,0,0,1-1.933.789H32.571v11a2.681,2.681,0,0,1-.782,1.961,2.757,2.757,0,0,1-3.865,0,2.672,2.672,0,0,1-.782-1.958Z" transform="translate(11.667 7.5)" fill="#79d682" style="isolation: isolate"/>
  </g>
</svg>
