<svg xmlns="http://www.w3.org/2000/svg" width="56" height="56" viewBox="0 0 56 56">
  <g id="socials" transform="translate(0 0)" style="isolation: isolate">
    <path id="Rectangle_1" data-name="Rectangle 1" d="M0,28A28,28,0,1,1,28,56,28,28,0,0,1,0,28Z" fill="#7289da" style="isolation: isolate"/>
    <path id="Vector" d="M21.424,0l-.462.448a18.323,18.323,0,0,1,7.09,3.435A24.016,24.016,0,0,0,19.42,1.344a15.426,15.426,0,0,0-2.62-.149,15.426,15.426,0,0,0-2.62.149A24.016,24.016,0,0,0,5.549,3.883,18.323,18.323,0,0,1,12.639.448L12.176,0A14.064,14.064,0,0,0,4.161,2.837,34.55,34.55,0,0,0,0,18.517,12.57,12.57,0,0,0,8.939,22.4s1.079-1.195,1.85-2.24A8.639,8.639,0,0,1,5.7,17.024a32.969,32.969,0,0,0,3.237,1.643A21.812,21.812,0,0,0,13.1,19.861a30.9,30.9,0,0,0,3.7.3,30.9,30.9,0,0,0,3.7-.3,21.812,21.812,0,0,0,4.161-1.195A32.959,32.959,0,0,0,27.9,17.024a8.639,8.639,0,0,1-5.086,3.136c.771,1.045,1.849,2.24,1.849,2.24A12.57,12.57,0,0,0,33.6,18.517a34.549,34.549,0,0,0-4.161-15.68A14.064,14.064,0,0,0,21.424,0ZM8.785,12.843a3.013,3.013,0,0,1,2.928-2.987,2.987,2.987,0,0,1,0,5.973A3.013,3.013,0,0,1,8.785,12.843Zm10.172,0a2.929,2.929,0,1,1,2.928,2.987A3.013,3.013,0,0,1,18.958,12.843Z" transform="translate(11.2 16.8)" fill="#fff" style="isolation: isolate"/>
  </g>
</svg>
