<svg xmlns="http://www.w3.org/2000/svg" width="56" height="56" viewBox="0 0 56 56">
  <g id="socials" transform="translate(0 0)" style="isolation: isolate">
    <path id="Rectangle_1" data-name="Rectangle 1" d="M0,28A28,28,0,1,1,28,56,28,28,0,0,1,0,28Z" fill="#27a6e5" style="isolation: isolate"/>
    <path id="Vector" d="M22.392,22.809a1.544,1.544,0,0,1-2.206.793l-9.708-7.708-.045-.023c1.311-1.219,11.48-10.687,11.924-11.116.688-.665.261-1.06-.538-.558L6.8,14.074,1,12.055s-.912-.336-1-1.066,1.03-1.127,1.03-1.127L24.658.265S26.6-.619,26.6.843Z" transform="translate(12.6 16.8)" fill="#fefefe" style="isolation: isolate"/>
  </g>
</svg>
