<svg xmlns="http://www.w3.org/2000/svg" xmlns:xlink="http://www.w3.org/1999/xlink" width="56" height="56" viewBox="0 0 56 56">
  <defs>
    <radialGradient id="radial-gradient" cx="1.02" cy="0.02" r="2.309" gradientTransform="translate(0 0)" gradientUnits="objectBoundingBox">
      <stop offset="0" stop-color="#f9ed32"/>
      <stop offset="0.36" stop-color="#ee2a7b"/>
      <stop offset="0.44" stop-color="#d22a8a"/>
      <stop offset="0.6" stop-color="#8b2ab2"/>
      <stop offset="0.83" stop-color="#1b2af0"/>
      <stop offset="0.88" stop-color="#002aff"/>
    </radialGradient>
  </defs>
  <g id="socials" transform="translate(0 0)" style="isolation: isolate">
    <path id="Rectangle_1" data-name="Rectangle 1" d="M0,28A28,28,0,1,1,28,56,28,28,0,0,1,0,28Z" fill="url(#radial-gradient)" style="isolation: isolate"/>
    <path id="instagram" d="M19.735,2.53a6.421,6.421,0,0,1,2.53.506,5.614,5.614,0,0,1,1.687,1.012,3.5,3.5,0,0,1,1.012,1.687,12.685,12.685,0,0,1,.506,2.53v11.47a6.423,6.423,0,0,1-.506,2.53,5.615,5.615,0,0,1-1.012,1.687,3.5,3.5,0,0,1-1.687,1.012,12.687,12.687,0,0,1-2.53.506H8.265a6.422,6.422,0,0,1-2.53-.506,5.616,5.616,0,0,1-1.687-1.012,3.5,3.5,0,0,1-1.012-1.687,12.68,12.68,0,0,1-.506-2.53V8.265a6.42,6.42,0,0,1,.506-2.53A5.614,5.614,0,0,1,4.048,4.048,3.5,3.5,0,0,1,5.735,3.036a12.678,12.678,0,0,1,2.53-.506h11.47ZM8.265,0A8.465,8.465,0,0,0,4.892.675a7.365,7.365,0,0,0-2.53,1.687A8.3,8.3,0,0,0,.675,4.892,13.061,13.061,0,0,0,0,8.265v11.47a8.465,8.465,0,0,0,.675,3.374,7.365,7.365,0,0,0,1.687,2.53,8.305,8.305,0,0,0,2.53,1.687A13.06,13.06,0,0,0,8.265,28h11.47a8.464,8.464,0,0,0,3.374-.675,7.366,7.366,0,0,0,2.53-1.687,8.305,8.305,0,0,0,1.687-2.53A13.059,13.059,0,0,0,28,19.735V8.265a8.464,8.464,0,0,0-.675-3.373,7.365,7.365,0,0,0-1.687-2.53A8.3,8.3,0,0,0,23.108.675,13.06,13.06,0,0,0,19.735,0H8.265ZM6.747,14A7.253,7.253,0,1,0,14,6.747,7.2,7.2,0,0,0,6.747,14Zm2.53,0a4.723,4.723,0,0,1,9.446,0A4.827,4.827,0,0,1,14,18.723,4.715,4.715,0,0,1,9.277,14ZM23.108,6.578a1.687,1.687,0,1,0-1.687,1.687A1.687,1.687,0,0,0,23.108,6.578Z" transform="translate(14 14)" fill="#fff" style="isolation: isolate"/>
  </g>
</svg>
