<svg xmlns="http://www.w3.org/2000/svg" width="96" height="96" viewBox="0 0 96 96">
  <g id="Group_1" data-name="Group 1" transform="translate(0 0)">
    <path id="Vector" d="M59.588,79.612A9.6,9.6,0,1,1,52.8,76.8,9.6,9.6,0,0,1,59.588,79.612Zm-28.346-13.7A12,12,0,1,1,22.757,62.4,12,12,0,0,1,31.242,65.915Zm53.877,1.7A9.6,9.6,0,1,1,78.331,64.8,9.6,9.6,0,0,1,85.119,67.612ZM93.891,46.84A7.2,7.2,0,1,1,88.8,44.731,7.2,7.2,0,0,1,93.891,46.84ZM20.485,32.315A12,12,0,1,1,12,28.8,12,12,0,0,1,20.485,32.315ZM88.767,26.4a4.8,4.8,0,1,1-3.394-1.406A4.8,4.8,0,0,1,88.767,26.4ZM48.582,4.218A14.4,14.4,0,1,1,38.4,0,14.4,14.4,0,0,1,48.582,4.218ZM76.1,15.1a2.4,2.4,0,1,1-1.7-.7A2.4,2.4,0,0,1,76.1,15.1Z" fill="#fff" style="isolation: isolate"/>
  </g>
</svg>
