<svg xmlns="http://www.w3.org/2000/svg" width="27.44" height="29.994" viewBox="0 0 27.44 29.994">
  <g id="Shape" fill="none" style="isolation: isolate">
    <path d="M13.986,12.268h13.1a13.938,13.938,0,0,1,.35,3.074c0,8.563-5.362,14.652-13.44,14.652-7.728,0-14-6.719-14-15S6.272,0,14,0a12.933,12.933,0,0,1,9.366,3.914L19.39,8.054A7.436,7.436,0,0,0,14,5.834c-4.634,0-8.414,4.124-8.414,9.178S9.366,24.191,14,24.191a7.412,7.412,0,0,0,7.7-6.329H13.986V12.268Z" stroke="none"/>
    <path d="M 14 1.5 C 7.107481002807617 1.5 1.5 7.554819107055664 1.5 14.99720001220703 C 1.5 22.43957901000977 7.107481002807617 28.49440002441406 14 28.49440002441406 C 17.5027904510498 28.49440002441406 20.48973083496094 27.24183082580566 22.63791084289551 24.87208938598633 C 23.68507957458496 23.71690940856934 24.50069046020508 22.32777976989746 25.06208992004395 20.74327087402344 C 25.64463043212891 19.09906959533691 25.94000053405762 17.2818603515625 25.94000053405762 15.34210014343262 C 25.94000053405762 14.73878002166748 25.89959716796875 14.23386001586914 25.83573150634766 13.7677001953125 L 15.48600006103516 13.7677001953125 L 15.48600006103516 16.3617000579834 L 23.44972038269043 16.3617000579834 L 23.1823902130127 18.09086990356445 C 22.74602127075195 20.91350936889648 20.32101058959961 25.69050025939941 14 25.69050025939941 C 8.53339958190918 25.69050025939941 4.086000442504883 20.90023040771484 4.086000442504883 15.01220035552979 C 4.086000442504883 9.124170303344727 8.53339958190918 4.33390998840332 14 4.33390998840332 C 16.30686569213867 4.33390998840332 18.04675674438477 5.106678009033203 19.2855110168457 5.996967315673828 L 21.20949172973633 3.993999481201172 C 20.39622116088867 3.347578048706055 19.52225494384766 2.821567535400391 18.59868049621582 2.423610687255859 C 17.17634010314941 1.810750961303711 15.62911987304688 1.5 14 1.5 M 14 0 C 17.78000068664551 0 20.94400024414062 1.484720230102539 23.36600112915039 3.914270401000977 L 19.38999938964844 8.053499221801758 C 18.38199996948242 7.033689498901367 16.61800003051758 5.83390998840332 14 5.83390998840332 C 9.366001129150391 5.83390998840332 5.586000442504883 9.958150863647461 5.586000442504883 15.01220035552979 C 5.586000442504883 20.06629943847656 9.366001129150391 24.19050025939941 14 24.19050025939941 C 19.36199951171875 24.19050025939941 21.33600044250488 20.21619987487793 21.70000076293945 17.8617000579834 L 13.98600006103516 17.8617000579834 L 13.98600006103516 12.2677001953125 L 27.09000015258789 12.2677001953125 C 27.28600120544434 13.21249961853027 27.44000053405762 14.09739971160889 27.44000053405762 15.34210014343262 C 27.44000053405762 23.9055004119873 22.07799911499023 29.99440002441406 14 29.99440002441406 C 6.271999359130859 29.99440002441406 0 23.27569961547852 0 14.99720001220703 C 0 6.71875 6.271999359130859 0 14 0 Z" stroke="none" fill="#cdcdcd"/>
  </g>
</svg>
