<svg xmlns="http://www.w3.org/2000/svg" width="28" height="28" viewBox="0 0 28 28">
  <g id="Group_2092" data-name="Group 2092" style="isolation: isolate">
    <g id="Ellipse_452" data-name="Ellipse 452" fill="none" style="isolation: isolate">
      <path d="M0,14A14,14,0,1,1,14,28,14,14,0,0,1,0,14Z" stroke="none"/>
      <path d="M 14 2 C 10.79467964172363 2 7.781219482421875 3.248220443725586 5.514720916748047 5.514720916748047 C 3.248220443725586 7.781219482421875 2 10.79467964172363 2 14 C 2 17.20532035827637 3.248220443725586 20.21879005432129 5.514720916748047 22.48529052734375 C 7.781219482421875 24.75177955627441 10.79467964172363 26 14 26 C 17.20532035827637 26 20.21879005432129 24.75177955627441 22.48529052734375 22.48529052734375 C 24.75177955627441 20.21879005432129 26 17.20532035827637 26 14 C 26 10.79467964172363 24.75177955627441 7.781219482421875 22.48529052734375 5.514720916748047 C 20.21879005432129 3.248220443725586 17.20532035827637 2 14 2 M 14 0 C 21.73200035095215 0 28 6.268009185791016 28 14 C 28 21.73200035095215 21.73200035095215 28 14 28 C 6.268009185791016 28 0 21.73200035095215 0 14 C 0 6.268009185791016 6.268009185791016 0 14 0 Z" stroke="none" fill="#fff"/>
    </g>
    <g id="Ellipse_453" data-name="Ellipse 453" transform="translate(5 5)" fill="none" style="isolation: isolate">
      <path d="M0,9a9,9,0,1,1,9,9A9,9,0,0,1,0,9Z" stroke="none"/>
      <path d="M 9 1.5 C 4.864489555358887 1.5 1.5 4.864489555358887 1.5 9 C 1.5 13.1355094909668 4.864489555358887 16.5 9 16.5 C 13.1355094909668 16.5 16.5 13.1355094909668 16.5 9 C 16.5 4.864489555358887 13.1355094909668 1.5 9 1.5 M 9 0 C 13.97060012817383 0 18 4.029439926147461 18 9 C 18 13.97060012817383 13.97060012817383 18 9 18 C 4.029439926147461 18 0 13.97060012817383 0 9 C 0 4.029439926147461 4.029439926147461 0 9 0 Z" stroke="none" fill="#fff"/>
    </g>
  </g>
</svg>
