<svg xmlns="http://www.w3.org/2000/svg" xmlns:xlink="http://www.w3.org/1999/xlink" width="30.172" height="29.53" viewBox="0 0 30.172 29.53">
  <defs>
    <linearGradient id="linear-gradient" x1="0.015" y1="1" x2="1" gradientUnits="objectBoundingBox">
      <stop offset="0" stop-color="#474747"/>
      <stop offset="1"/>
    </linearGradient>
    <linearGradient id="linear-gradient-2" x1="0.015" y1="1" x2="1" xlink:href="#linear-gradient"/>
    <linearGradient id="linear-gradient-3" x1="0.015" y1="1" x2="1" xlink:href="#linear-gradient"/>
  </defs>
  <g id="Group_3035" data-name="Group 3035" style="isolation: isolate">
    <path id="Vector" d="M.171,21.216c.686-1.988,1.2-3.976,1.886-5.964V14.71C1.371,12,.686,8.927,0,6.035V5.493C.343,3.685.857,2.059,1.2.252A.609.609,0,0,1,1.714.071C4.971,1.155,8.057,2.42,11.314,3.5c.171.181.343.181.686.181h6.171a.609.609,0,0,0,.514-.181C21.943,2.42,25.2,1.155,28.457.071c.343-.181.343,0,.514.361.343,1.807.857,3.434,1.2,5.241v.542c-.686,2.892-1.371,5.964-1.886,8.856v.723c.686,1.988,1.2,3.8,1.886,5.783v.542c-.686,2.169-1.2,4.337-1.886,6.506,0,.181-.171.361-.343.181-2.057-.542-4.114-1.084-6-1.627h-.514l-3.086,2.169a.61.61,0,0,1-.514.181H12.857a.609.609,0,0,1-.514-.181c-1.029-.723-2.057-1.446-3.257-2.169H8.4c-2.057.542-3.943,1.084-6,1.627-.171,0-.343,0-.343-.181-.686-2.169-1.2-4.337-1.886-6.687C0,21.758,0,21.758,0,21.578S0,21.4.171,21.216ZM12.857,9.107c.172.181.172.181,0,.361a31.946,31.946,0,0,1-2.743,3.976c0,.181-.171.181-.343.361-2.057.542-4.114,1.265-6.171,1.807-.171.181-.343.181-.343.361-.514,1.627-1.029,3.072-1.543,4.7-.171.361,0,.361.171.361H9.943c.171,0,.171,0,.171.181a41.107,41.107,0,0,1-.686,4.518.687.687,0,0,0,.171.542c.857.542,1.886,1.265,2.743,1.807a.609.609,0,0,0,.514.181h4.114c.172,0,.343,0,.343-.181.857-.542,1.886-1.265,2.743-1.807.171-.181.171-.181.171-.361a38.025,38.025,0,0,0-.686-4.337c0-.361,0-.361.343-.361h8.057v-.181c-.514-1.627-1.029-3.253-1.543-4.7,0-.181-.171-.181-.343-.361-2.057-.723-3.943-1.265-6-1.988-.171,0-.343-.181-.514-.361-.857-1.265-1.714-2.53-2.572-3.615.172-.542.172-.723.514-.9,2.4-1.988,4.629-3.8,7.029-5.783l.171-.181c-1.714.542-3.429,1.084-5.143,1.807a4.847,4.847,0,0,1-1.714.361h-6a1.242,1.242,0,0,1-.686-.181A29.341,29.341,0,0,0,8.229,4.047a14.551,14.551,0,0,0-2.571-.9C8.229,5.131,10.457,7.119,12.857,9.107ZM1.543,5.673v.361c.514,2.53,1.2,5.241,1.714,7.771,0,.181.171.361.343.181,1.714-.542,3.6-1.084,5.314-1.627.171,0,.343-.181.514-.362A26.518,26.518,0,0,0,10.971,9.65a.35.35,0,0,0,0-.542L5.829,4.77a43.662,43.662,0,0,1-3.6-2.53C2.057,3.324,1.714,4.589,1.543,5.673Zm17.486,3.8c-.172.181-.172.181,0,.361.514.723,1.028,1.627,1.543,2.349.172.181.343.361.514.361l5.143,1.627c.343.181.343,0,.514-.181.514-2.169.857-4.337,1.371-6.506a5.274,5.274,0,0,0,0-3.253,9.778,9.778,0,0,0-.343-1.988C24.857,4.77,21.943,7.119,19.029,9.469ZM1.886,22.3c-.171,0-.343,0-.171.181.343,1.446.857,2.892,1.2,4.337,0,.181.171.181.343.181,1.543-.361,3.257-.9,4.8-1.265.171,0,.171,0,.171-.181a14.77,14.77,0,0,0,.343-2.892c0-.181,0-.361-.343-.361a17.558,17.558,0,0,1-3.086,0Zm19.714.181c-.343,0-.343,0-.343.361a14.66,14.66,0,0,1,.343,2.711.379.379,0,0,0,.343.361,44.059,44.059,0,0,1,4.628,1.265c.172,0,.343,0,.343-.181a37.9,37.9,0,0,1,1.2-4.157c.171-.361,0-.361-.343-.361H21.6Z" fill="url(#linear-gradient)" style="isolation: isolate"/>
    <path id="Vector-2" data-name="Vector" d="M.242,2.892c-.171,0-.343,0-.171-.181V.9A1.132,1.132,0,0,1,.928,0h2.4a1.132,1.132,0,0,1,.857.9V2.711c0,.181,0,.181-.171.181H.242Z" transform="translate(12.957 23.023)" fill="url(#linear-gradient-2)" style="isolation: isolate"/>
    <path id="Vector-3" data-name="Vector" d="M0,2.169c.171-.181.171-.361.343-.542C.686,1.084.857.723,1.2.181,1.2,0,1.371,0,1.543,0A18.03,18.03,0,0,0,3.429,1.446C2.229,1.627,1.2,1.988,0,2.169Z" transform="translate(17.145 17.42)" fill="url(#linear-gradient-3)" style="isolation: isolate"/>
    <path id="Vector-4" data-name="Vector" d="M0,1.446C.686.9,1.371.361,1.886,0h.171c.514.723.857,1.446,1.371,2.169C2.229,1.988,1.2,1.627,0,1.446Z" transform="translate(9.602 17.42)" fill="url(#linear-gradient-3)" style="isolation: isolate"/>
  </g>
</svg>
